<svg width="245" height="542" viewBox="0 0 245 542" fill="none" xmlns="http://www.w3.org/2000/svg">
<path d="M53.9073 518.529C44.1927 442.779 46.5766 368.281 53.7881 293.067C42.4047 313.808 44.9079 329.363 17.7308 335.084C27.0878 339.733 33.3457 344.441 31.1405 354.871C30.6042 357.553 31.3193 360.473 29.8294 362.559C28.5778 364.288 23.6907 363.632 22.8563 365.897L17.4924 380.677C12.4861 378.77 14.1549 374.718 11.7709 370.665C8.67181 372.81 9.92338 377.102 5.03628 378.174C-0.566004 371.976 -1.93678 360.771 3.18872 354.931C19.5784 355.646 15.2277 346.706 21.9027 357.315C25.5383 356.48 24.2271 351.355 22.9755 348.136C20.7108 342.355 9.32739 345.276 9.32739 340.031C9.32739 337.766 11.6517 336.098 15.0489 333.654C9.0294 328.111 3.06952 322.151 2.41393 313.152C-2.89036 238.177 20.7108 163.619 89.8453 121.84L52.7749 79.4056C43.9543 69.2738 40.0208 55.4469 40.3784 42.3351C40.7359 28.5082 52.7153 26.7201 59.748 18.3763C70.1777 6.03937 86.329 -7.42989 102.957 4.84746C107.189 7.9466 110.288 15.8733 116.069 18.1381C129.419 23.3827 118.632 36.6135 118.93 43.7058C120.896 91.206 120.42 74.0416 102.003 122.376C124.889 141.686 148.789 157.778 175.787 168.923C185.263 172.856 195.514 171.605 203.381 166.122C223.108 152.414 206.659 130.72 224.121 126.667C231.333 124.999 237.293 129.111 239.557 136.501C256.662 198.543 233.836 265.533 165.595 282.518C174.416 353.381 183.117 422.933 186.157 494.451C186.276 497.789 185.144 499.875 185.919 502.676C187.587 508.577 198.613 505.06 203.5 512.569C205.288 515.311 207.553 523.893 203.619 525.026L176.562 532.833C188.422 536.111 228.77 530.211 231.214 537.064C231.869 538.852 229.902 541.117 226.863 541.117L24.1675 541.236C21.4855 541.236 19.936 539.806 19.4592 538.614C18.3268 535.575 20.1744 534.442 23.9291 533.906C27.6838 533.37 34.0609 535.336 36.3256 532.356C40.7955 526.396 40.8551 520.734 54.0265 518.47L53.9073 518.529ZM66.3038 39.2956C79.4156 42.5139 90.7989 46.7454 102.719 43.4079C110.765 41.1431 118.334 32.9185 113.148 24.9919C110.884 21.5352 103.911 24.4554 101.05 21.3563C101.05 16.2904 100.573 12.1186 97.5932 9.79426C82.8127 -1.6487 66.423 23.919 64.6947 25.4686C58.1984 31.1305 46.9342 32.7397 47.5302 44.5403C48.007 55.0297 51.8809 66.5323 59.5096 74.5781C65.9462 63.6119 63.7411 52.4072 66.3038 39.2359V39.2956ZM110.347 49.1293C96.8184 53.182 85.6734 52.0498 72.2041 48.7123L67.317 82.5643C71.7273 95.8549 86.4482 103.185 94.6728 115.88C105.877 97.2852 118.214 69.2737 110.347 49.1293ZM105.639 137.991C106.771 133.819 99.0831 128.932 95.6264 128.813C92.1697 128.694 85.5542 132.091 83.3491 136.144C85.0178 140.256 91.8121 145.024 96.6992 145.501C99.3811 145.799 104.507 142.223 105.639 137.932V137.991ZM16.4792 322.747C18.9824 326.621 24.0483 326.264 28.101 323.105C45.623 309.338 41.3319 282.935 57.3044 263.208C80.4883 234.482 100.871 282.22 156.536 275.962C220.307 268.81 251.835 196.279 231.929 142.521C231.273 140.673 231.929 138.647 231.214 137.157C230.32 135.309 228.591 132.687 226.088 133.7C217.208 137.455 228.174 157.539 209.222 171.307C180.853 191.868 146.941 162.069 120.181 146.573C119.108 154.5 121.433 161.294 117.499 167.373L96.9376 157.42L78.5216 172.201C70.8929 165.228 73.5153 156.407 71.0717 145.262C20.6512 185.968 5.81106 251.646 10.1022 313.569C10.4002 317.622 13.1417 320.781 16.5984 322.747H16.4792ZM90.2029 151.282C86.4482 148.421 84.7198 147.467 80.4287 146.692C79.1772 151.699 79.1772 155.811 80.1903 159.983C85.137 157.778 87.7594 155.752 90.1433 151.282H90.2029ZM153.497 533.667C154.272 521.45 147.954 512.391 145.093 501.544L107.129 356.778L94.2556 508.457C90.6797 516.622 88.8322 524.43 91.0969 533.667H153.437H153.497ZM198.673 517.635C188.72 511.556 180.793 513.285 175.906 503.749C170.78 504.524 159.814 503.153 157.967 507.921C155.583 514.178 159.755 520.794 160.947 526.873C174.058 523.655 185.859 523.893 198.613 517.635H198.673ZM82.9319 533.608C83.5875 524.37 83.7067 519.841 82.5147 514.119L63.5027 513.762C61.4763 523.953 52.7749 524.37 44.4907 532.058C58.1388 535.634 69.9989 533.072 82.9915 533.548L82.9319 533.608Z" fill="#2F3540"/>
<path d="M222.692 88.0468C222.871 82.5041 221.918 76.8422 222.514 71.2995C222.931 67.2468 225.136 57.6514 230.5 59.7374C232.586 62.5385 236.4 68.6177 241.287 69.5713C236.221 89.9541 249.75 102.172 238.248 113.376C234.076 117.429 227.758 120.349 220.308 118.74C201.237 114.568 194.443 90.2521 201.296 87.8085C209.521 84.8882 202.488 104.556 220.487 110.814C224.659 112.244 228.712 110.814 231.096 109.026C234.433 106.463 235.685 101.874 234.851 96.8675L230.857 74.5776C224.48 77.6171 228.95 81.4313 228.175 84.3517C227.401 87.272 225.672 88.2852 222.692 88.0468Z" fill="#2F3540"/>
<path d="M218.461 71.1224C217.805 77.3206 217.865 83.5786 217.865 89.8365C216.554 90.2537 216.077 92.1012 214.527 91.6244C207.971 89.598 209.819 63.4939 214.646 58.9644C220.725 62.3615 218.878 67.3678 218.461 71.0629V71.1224Z" fill="#2F3540"/>
<path d="M222.511 71.3013C221.915 76.844 222.869 82.5059 222.69 88.0486C221.439 88.7042 219.293 89.3599 217.863 89.8367C217.863 83.5788 217.803 77.3208 218.459 71.1226L222.511 71.3013Z" fill="#BBDEBF"/>
<path d="M231.809 142.522C228.65 144.131 228.709 148.839 228.054 153.07C224.657 176.791 218.637 200.809 202.903 218.272C185.381 237.641 161.661 243.661 138.06 234.006C123.458 228.046 108.141 223.755 92.2879 222.92C65.7068 221.49 43.9533 236.688 35.0135 261.421C27.5636 281.923 21.9613 302.485 16.4186 322.808C12.9619 320.841 10.2204 317.682 9.92237 313.63C5.63126 251.766 20.4714 186.088 70.8919 145.323C73.2759 156.468 70.7131 165.288 78.3418 172.261L96.7578 157.481L117.319 167.434C121.253 161.355 118.929 154.561 120.001 146.634C146.761 162.13 180.673 191.929 209.042 171.367C227.994 157.6 217.088 137.515 225.908 133.761C228.411 132.688 230.14 135.37 231.034 137.217C231.749 138.707 231.034 140.734 231.749 142.581L231.809 142.522Z" fill="#FDFDFD"/>
<path d="M16.4785 322.747C22.0212 302.424 27.6235 281.863 35.0734 261.361C44.0132 236.687 65.7667 221.489 92.3478 222.86C108.201 223.694 123.518 228.045 138.12 233.945C161.721 243.54 185.441 237.581 202.963 218.211C218.697 200.748 224.717 176.73 228.114 153.01C228.71 148.779 228.71 144.07 231.869 142.461C251.834 196.219 220.306 268.751 156.476 275.903C100.811 282.161 80.428 234.422 57.2441 263.148C41.3312 282.876 45.5627 309.278 28.0407 323.045C24.0476 326.204 18.9221 326.562 16.4189 322.688L16.4785 322.747Z" fill="#BBDEBF"/>
<path d="M110.347 49.129C118.273 69.2734 105.936 97.2849 94.6722 115.88C86.4476 103.185 71.7863 95.8545 67.3164 82.564L72.2035 48.7119C85.6132 51.9898 96.8178 53.1817 110.347 49.129ZM90.9771 82.0276C87.58 81.4316 83.5273 73.6838 80.6665 78.3325C77.8058 82.9812 83.6465 88.4046 87.2224 89.3581C91.1559 90.3713 99.2613 91.2057 100.036 85.4246C100.692 80.4779 94.6722 82.6832 90.9175 82.0276H90.9771Z" fill="#FDFDFD"/>
<path d="M66.3025 39.2953C63.7397 52.4667 65.9449 63.6116 59.5082 74.6374C51.8795 66.5915 48.0056 55.0891 47.5288 44.5997C46.9924 32.7991 58.197 31.1899 64.6933 25.528C66.4216 24.0381 82.8113 -1.58945 97.5918 9.85351C100.572 12.1183 100.989 16.2902 101.049 21.4157C103.909 24.4552 110.882 21.5946 113.147 25.0513C118.332 32.9184 110.823 41.2026 102.717 43.4673C90.7379 46.8048 79.4142 42.5733 66.3025 39.355V39.2953Z" fill="#FDFDFD"/>
<path d="M198.672 517.636C185.858 523.894 174.117 523.656 161.005 526.874C159.813 520.795 155.642 514.179 158.026 507.921C159.873 503.153 170.78 504.524 175.965 503.75C180.852 513.285 188.779 511.557 198.731 517.636H198.672Z" fill="#FDFDFD"/>
<path d="M82.932 533.608C69.9394 533.072 58.0793 535.694 44.4312 532.118C52.7154 524.43 61.4764 523.953 63.4432 513.821L82.4552 514.179C83.6471 519.9 83.528 524.43 82.8724 533.667L82.932 533.608Z" fill="#FDFDFD"/>
<path d="M105.638 137.992C104.506 142.283 99.3206 145.8 96.6983 145.561C91.8708 145.085 85.0765 140.317 83.3481 136.204C85.5533 132.152 92.2284 128.754 95.6255 128.874C99.0226 128.993 106.77 133.82 105.638 138.052V137.992Z" fill="#FDFDFD"/>
<path d="M90.204 151.282C87.82 155.752 85.1977 157.778 80.251 159.983C79.2378 155.811 79.2378 151.639 80.4894 146.692C84.7805 147.467 86.4493 148.421 90.2636 151.282H90.204Z" fill="#BBDEBF"/>
<path d="M90.9786 82.0272C94.7333 82.6828 100.753 80.4179 100.097 85.4242C99.3224 91.2053 91.217 90.3709 87.2835 89.3577C83.7076 88.4041 77.8669 83.0404 80.7276 78.3321C83.5884 73.6238 87.5815 81.4312 91.0382 82.0272H90.9786Z" fill="#2F3540"/>
</svg>
