<?xml version="1.0" encoding="UTF-8"?>
<svg id="Calque_2" data-name="Calque 2" xmlns="http://www.w3.org/2000/svg" viewBox="0 0 353.31 246.33">
  <defs>
    <style>
      .cls-1 {
        fill: #EFAE7D;
      }
    </style>
  </defs>
  <g id="Calque_1-2" data-name="Calque 1">
    <g>
      <path class="cls-1" d="M223.6,246.33s9.11.11,9-10.67c0,0-1.67-6.33,9.89-6.67,10.25-.3,46.8-.07,54.94-.01,1.13,0,2.21-.42,3.04-1.19,1.75-1.63,4.47-4.73,4.24-8.14-.24-3.65-3.45-5.7-5.16-6.54-.61-.3-1.28-.46-1.96-.46h-9.01c-.82,0-1.61-.22-2.3-.64-1.95-1.18-5.6-4.04-5.68-8.91-.11-6.67,5.11-6.33,5.11-6.33h39.1c.64,0,1.26-.13,1.84-.4,2.46-1.13,8.99-4.69,10.52-11.3.42-1.83,2.41-3.3,4.28-3.3h2.25c.51,0,1.02-.09,1.51-.26,2.16-.78,7.73-3.43,7.28-10.07s-5.23-8.75-7.12-9.35c-.43-.14-.88-.2-1.33-.2h-1.05c-3.01,0-5.21-2.96-4.21-5.79.48-1.35.75-2.97.61-4.88,0,0-.65-9.21-8.37-10.19-.2-.02-.4-.03-.59-.03h-16.01c-.35,0-.7-.04-1.05-.13-2.35-.57-11.11-3.22-10.54-11.21.5-6.94,4.78-10.23,6.86-11.43.66-.38,1.41-.57,2.17-.57h31.74c.75,0,1.48-.18,2.13-.55,2.21-1.23,6.95-4.66,7.54-11.79.64-7.7-5.53-10.49-7.7-11.22-.45-.15-.91-.22-1.38-.22h-8.87c-.65,0-1.29-.14-1.87-.42-2.16-1.02-7.31-3.88-7.39-7.92-.06-2.82-.05-4.73-.04-5.87.01-.94-.27-1.85-.82-2.62-1.48-2.08-4.65-5.98-7.59-6.06-3.07-.09-10.22-.04-13.36-.01-1.06,0-2.08-.36-2.89-1.05-2.06-1.77-5.8-5.67-6.2-10.94-.42-5.54-5.15-9.56-7.44-11.19-.74-.53-1.64-.81-2.55-.81h-8.53c-.86,0-1.69-.24-2.41-.71-1.99-1.29-5.62-4.42-5.62-10.07s3.82-9.26,5.9-10.8c.76-.57,1.68-.87,2.64-.87h29.68c.84,0,1.67-.24,2.38-.69,2.59-1.67,8.59-6.24,8.07-12.53s-7.46-9.99-9.92-11.01c-.53-.22-1.1-.33-1.67-.33h-155.82c-.83,0-1.64.23-2.34.67-1.94,1.2-5.56,4-5.8,8.22s-4.9,9.92-7.29,12.54c-.84.93-2.03,1.46-3.28,1.46h-58.61c-.69,0-1.37.16-1.98.47-2.63,1.31-9.16,5.45-7.28,13.75,2.33,10.33,7.33,8.56,7.33,8.56h9.52c.68,0,1.35.16,1.97.46,2.59,1.27,9.03,5.29,7.96,13.32-1.33,10-7.11,9.56-7.11,9.56h-37.83s-11.33-.07-11.5,5.27c-.15,4.96,9.62,4.3,11.01,4.18.12-.01.24-.01.36-.01h6.8c2.87,0,5.01,2.69,4.31,5.46-.87,3.43-3.04,7.62-8.35,9.89-.52.22-1.08.32-1.65.32-4.2,0-22.72,0-27.18,0-.74,0-1.45.18-2.1.53-2.25,1.22-7.01,4.68-6.37,11.97.83,9.5,7.5,9.67,7.5,9.67h15.42c.99,0,1.94.33,2.72.93,1.87,1.46,4.82,4.8,4.36,11.23-.48,6.78-3.87,9.25-5.69,10.1-.58.27-1.21.4-1.85.4h-12.53c-.69,0-1.36.15-1.98.46-2.37,1.2-7.33,5.3-6.95,18.54v.09c0,1.99-1.33,3.7-3.23,4.26-3.65,1.09-8.99,3.75-8.1,9.98,1.33,9.33,5.5,7.83,5.5,7.83h4.07c2.45,0,4.43,1.98,4.43,4.43v.39c0,.37.05.74.14,1.11.56,2.14,2.93,9.45,9.46,10.68.26.05.53.07.8.07,1.9,0,10.04,0,12.64,0,.59,0,1.17.11,1.72.35,1.72.74,5.25,2.74,5.25,6.65,0,3.2,1.79,5.7,3.15,7.14.83.88,1.99,1.36,3.2,1.36h34.21c1.25,0,2.43.52,3.27,1.44,1.36,1.5,3.17,4.06,3.17,7.06s-1.92,5.37-3.34,6.67c-.82.75-1.89,1.17-3,1.17h-9.49c-.86,0-1.69.25-2.41.71-2.05,1.31-5.83,4.37-5.09,8.79.67,4,3.12,6.33,4.67,7.43.74.53,1.62.8,2.53.8,14.19,0,148.94,0,148.63,0Z"/>
      <rect class="cls-1" x="44.1" y="6.93" width="45.17" height="9.5" rx="4.75" ry="4.75"/>
      <rect class="cls-1" x="48.6" y="54.27" width="28" height="8" rx="4" ry="4"/>
      <rect class="cls-1" x="35.43" y="81.04" width="12.28" height="6.17" rx="3.08" ry="3.08"/>
      <rect class="cls-1" x="59.99" y="217.32" width="22.22" height="3.11" rx="1.56" ry="1.56"/>
      <rect class="cls-1" x="47.71" y="229.1" width="6.72" height="3.56" rx="1.78" ry="1.78"/>
      <rect class="cls-1" x="242.65" y="231.99" width="22.56" height="6" rx="3" ry="3"/>
      <rect class="cls-1" x="299.54" y="199.88" width="17.44" height="6.44" rx="3.22" ry="3.22"/>
      <rect class="cls-1" x="315.1" y="213.99" width="9.11" height="4.78" rx="2.39" ry="2.39"/>
      <rect class="cls-1" x="324.32" y="124.99" width="12.89" height="6.89" rx="3.44" ry="3.44"/>
      <rect class="cls-1" x="290.27" y="29.43" width="33.83" height="9.5" rx="4.75" ry="4.75"/>
    </g>
  </g>
</svg>